<?xml version="1.0" encoding="iso-8859-1"?>
<!-- Generator: Adobe Illustrator 19.0.0, SVG Export Plug-In . SVG Version: 6.00 Build 0)  -->
<svg version="1.1" id="Capa_1" xmlns="http://www.w3.org/2000/svg" xmlns:xlink="http://www.w3.org/1999/xlink" x="0px" y="0px"
	 viewBox="0 0 449.334 449.334" style="enable-background:new 0 0 449.334 449.334;" xml:space="preserve">
<g>
	<g>
		<g>
			<path d="M428.422,67.411c0.004-11.253-9.116-20.379-20.369-20.382c-0.176,0-0.353,0.002-0.529,0.007H41.81
				c-11.249-0.289-20.603,8.597-20.891,19.846c-0.005,0.176-0.007,0.353-0.007,0.529v266.971h407.51V67.411z M402.3,292.587
				c0,5.771-4.678,10.449-10.449,10.449H57.483c-5.771,0-10.449-4.678-10.449-10.449V78.383c0-5.771,4.678-10.449,10.449-10.449
				h334.367c5.771,0,10.449,4.678,10.449,10.449V292.587z" fill="#2a1b3d"/>
			<rect x="67.932" y="88.832" width="313.469" height="193.306" fill="#d83f87"/>
			<path d="M449.32,361.028v-5.747H0.014v5.747c-0.579,22.21,16.956,40.684,39.166,41.263c0.528,0.014,1.056,0.017,1.585,0.01
				h367.804c22.216,0.296,40.465-17.473,40.761-39.689C449.337,362.084,449.334,361.556,449.32,361.028z" fill="#2a1b3d"/>
		</g>
	</g>
</g>
<g>
</g>
<g>
</g>
<g>
</g>
<g>
</g>
<g>
</g>
<g>
</g>
<g>
</g>
<g>
</g>
<g>
</g>
<g>
</g>
<g>
</g>
<g>
</g>
<g>
</g>
<g>
</g>
<g>
</g>
</svg>
